<svg xmlns="http://www.w3.org/2000/svg" viewBox="0 0 32 32">
  <g fill="#fff">
    <path fill-rule="evenodd" d="M17 3
      C 15.4 6.8 17.8 8.6 17.8 11
      C 17.8 12.6 16.6 13.2 15.5 12.4
      C 14.4 11.6 14.7 9.9 13.9 8.8
      C 13 10.8 11 12 10.5 14.4
      C 9.6 18.3 12.6 21 16 21
      C 19.4 21 22 18.4 22 15
      C 22 10.4 17.8 8.2 17 3 Z
      M16 12
      C 16.7 14 17.9 15.2 18 16.8
      C 18.1 18 17.2 19 16 19
      C 14.8 19 13.9 18 14 16.8
      C 14.1 15.2 15.3 14 16 12 Z"/>
    <rect x="7.5" y="23.7" width="17" height="3.4" rx="1.7" transform="rotate(26 16 25.4)"/>
    <rect x="7.5" y="23.7" width="17" height="3.4" rx="1.7" transform="rotate(-26 16 25.4)"/>
  </g>
</svg>
