<svg xmlns="http://www.w3.org/2000/svg" viewBox="0 0 32 32">
  <g fill="none" stroke="#fff" stroke-width="2" stroke-linecap="round" stroke-linejoin="round">
    <path d="M8 22.5
             Q4.5 19.5 3.7 16.3 Q3.2 13.6 6 13.8 Q8.2 14.4 9.6 16.8
             Q10.2 11 11 6 Q11.4 3.4 12.7 3.4 Q14 3.4 14.2 6 Q14.4 9.5 14.4 12.6
             Q15 7.8 16 3.5 Q16.4 1.3 17.7 1.3 Q19 1.3 19.4 3.6 Q20 8 19.9 12.8
             Q20.6 8.4 21.8 4.8 Q22.3 2.7 23.6 2.9 Q24.8 3.2 24.6 5.6 Q24.4 9.4 24 13
             Q24.9 10.4 26.4 8.6 Q27.7 7.2 28.4 9.4 Q28.6 11.8 26.4 14.8
             Q26.6 21 23.2 25 Q19 28.8 13 27.2 Q9 26.2 8 22.5 Z"/>
    <path d="M11 20 Q16 23 21 20.4"/>
    <path d="M18.8 21 Q21 22.6 20 25"/>
  </g>
</svg>
